<?xml version="1.0" encoding="UTF-8" standalone="no"?>
<!-- Created with Inkscape (http://www.inkscape.org/) -->

<svg
   width="300mm"
   height="300mm"
   viewBox="0 0 1133.8583 1133.8583"
   version="1.1"
   id="svg5"
   xml:space="preserve"
   inkscape:version="1.2.2 (732a01da63, 2022-12-09)"
   sodipodi:docname="02.svg"
   xmlns:inkscape="http://www.inkscape.org/namespaces/inkscape"
   xmlns:sodipodi="http://sodipodi.sourceforge.net/DTD/sodipodi-0.dtd"
   xmlns="http://www.w3.org/2000/svg"
   xmlns:svg="http://www.w3.org/2000/svg"><sodipodi:namedview
     id="namedview7"
     pagecolor="#ffffff"
     bordercolor="#000000"
     borderopacity="0.25"
     inkscape:showpageshadow="2"
     inkscape:pageopacity="0.0"
     inkscape:pagecheckerboard="0"
     inkscape:deskcolor="#d1d1d1"
     inkscape:document-units="mm"
     showgrid="false"
     inkscape:zoom="5.1754899"
     inkscape:cx="529.32187"
     inkscape:cy="587.38401"
     inkscape:window-width="3440"
     inkscape:window-height="1387"
     inkscape:window-x="1432"
     inkscape:window-y="1103"
     inkscape:window-maximized="1"
     inkscape:current-layer="layer1" /><defs
     id="defs2" /><g
     inkscape:label="Layer 1"
     inkscape:groupmode="layer"
     id="layer1"><path
       style="fill:#000000;stroke-width:0.446291"
       d="m 545.54345,664.34595 c -4.72249,-2.71991 -8.46889,-7.32525 -11.02942,-13.55812 l -1.46673,-3.57033 -0.12939,-39.49676 c -0.0892,-27.24289 0.0229,-40.38625 0.36131,-42.36375 0.26988,-1.57684 1.07467,-4.68972 1.78843,-6.91751 1.1685,-3.64718 1.55472,-4.30155 3.87846,-6.5714 4.53229,-4.42718 4.40476,-4.39729 18.74099,-4.39245 l 12.40236,0.004 2.24057,1.2852 c 4.37078,2.50708 7.32152,6.60253 9.84594,13.66556 l 1.52537,4.26779 v 39.72119 39.72119 l -1.61648,4.33185 c -0.88907,2.38251 -1.97303,5.03475 -2.40881,5.89387 -1.17927,2.32487 -4.20457,5.57211 -6.35222,6.81824 -1.85308,1.07522 -2.17515,1.10627 -14.39165,1.38758 -9.08468,0.20919 -12.73982,0.1474 -13.38873,-0.22634 z m 20.12003,-17.99476 c 0.52084,-0.71337 0.63251,-4.01866 0.63251,-18.72191 0,-10.25268 -0.16658,-17.67507 -0.39121,-17.43163 -0.21517,0.23319 -3.84532,5.61524 -8.067,11.96012 l -7.67579,11.53614 0.14533,6.02124 c 0.19384,8.03104 -0.0145,7.84429 8.52783,7.6461 5.52268,-0.12814 6.26454,-0.23787 6.82833,-1.01006 z m -6.54211,-55.56616 7.17462,-11.35707 -0.002,-5.37885 c -0.003,-6.8486 -0.39974,-8.3694 -2.36803,-9.08114 -1.75074,-0.63308 -10.0314,-0.72088 -11.60383,-0.12304 -1.96316,0.74639 -2.09262,2.08981 -2.08461,21.63201 0.007,18.21683 0.0134,18.3337 0.85862,17.00403 0.4681,-0.73638 4.07968,-6.44955 8.02572,-12.69594 z m 40.20016,65.57566 v -8.48531 l 8.54977,-12.82509 c 4.70237,-7.0538 11.09574,-16.44005 14.20747,-20.85833 11.33273,-16.09106 12.6973,-18.97521 13.36477,-28.24761 0.6589,-9.15314 -0.74709,-15.31809 -4.32094,-18.9465 l -2.08916,-2.12106 h -3.21267 c -3.55873,0 -7.94443,1.36387 -8.65497,2.69153 -0.86477,1.61584 -1.39603,5.29558 -1.40086,9.70298 l -0.005,4.5844 -8.10762,-0.12149 -8.10763,-0.1215 -0.13431,-3.11569 c -0.2201,-5.10562 0.65889,-11.81847 2.16196,-16.51074 1.24188,-3.87687 1.68997,-4.6645 4.4045,-7.74181 2.72666,-3.09107 3.37757,-3.57074 6.66095,-4.90862 l 3.639,-1.48278 9.26245,0.1439 9.26245,0.14391 3.12404,1.675 c 6.48087,3.47483 9.25433,7.13691 11.06831,14.61462 2.4815,10.22941 2.01646,27.81712 -0.96002,36.30795 -0.48937,1.39601 -6.70552,11.04449 -15.85579,24.61079 l -15.05084,22.31455 16.53567,0.117 16.53567,0.11701 v 8.4741 8.4741 h -25.43859 -25.43859 z"
       id="path186" /></g></svg>
